PathFileType	4	(X/Y/Z)	D:\luciana\static.trc
DataRate	CameraRate	NumFrames	NumMarkers	Units	OrigDataRate	OrigDataStartFrame	OrigNumFrames
250.00	250.00	12	21	mm	250.00	807	922
Frame#	Time	pelvisR			PelvisL			Trunk1			Trunk2			Trunk3			C7			shoulder			upperArm1			upperArm2			upperArm3			elbow			forearm1			forearm2			forearm3			wrist1			wrist2			wrist3			wristOut			wristIn			elbowInt			hand			
		X1	Y1	Z1	X2	Y2	Z2	X3	Y3	Z3	X4	Y4	Z4	X5	Y5	Z5	X6	Y6	Z6	X7	Y7	Z7	X8	Y8	Z8	X9	Y9	Z9	X10	Y10	Z10	X11	Y11	Z11	X12	Y12	Z12	X13	Y13	Z13	X14	Y14	Z14	X15	Y15	Z15	X16	Y16	Z16	X17	Y17	Z17	X18	Y18	Z18	X19	Y19	Z19	X20	Y20	Z20	X21	Y21	Z21	

806	3.224000	1409.847140	637.783170	656.153858	1744.374752	653.292656	650.929987	1516.774654	872.785926	561.777055	1580.109119	819.603205	560.936391	1491.677284	780.048251	562.438667	1581.712961	1132.191420	743.643403	1752.294540	1067.852020	676.608324	1862.306237	931.711137	772.836089	1903.645754	942.476869	709.693670	1852.095842	916.846156	650.786281	1916.488528	798.346877	701.264799	1926.204205	701.999068	716.374874	1936.129332	731.870353	641.883135	1872.182131	766.384482	625.509739	1836.257577	673.850417	543.470860	1868.940115	614.166975	584.582925	1775.145888	693.533719	579.963326	1822.925806	603.296220	562.512875	1767.564058	646.055758	562.648237	1858.281612	763.331115	765.476942	1791.659236	610.455871	502.521276	
807	3.228000	1409.857750	637.768686	656.157196	1744.379759	653.282821	650.930882	1516.764522	872.765958	561.802804	1580.100775	819.594741	560.958505	1491.691113	780.039489	562.457144	1581.700802	1132.182598	743.649483	1752.297640	1067.851424	676.626325	1862.297535	931.713462	772.839189	1903.646946	942.475021	709.699512	1852.088571	916.842937	650.803924	1916.484833	798.346341	701.274395	1926.168084	701.982498	716.371417	1936.127663	731.866837	641.883314	1872.189045	766.386628	625.517070	1836.239696	673.839092	543.481410	1868.939400	614.140868	584.594011	1775.139451	693.534434	579.966128	1822.954297	603.298426	562.516928	1767.560959	646.060824	562.640905	1858.281374	763.327122	765.466571	1791.652679	610.452592	502.530396	
808	3.232000	1409.830928	637.762368	656.178355	1744.388103	653.272748	650.929511	1516.775370	872.751296	561.811984	1580.107927	819.594681	560.971558	1491.701603	780.038416	562.483609	1581.696630	1132.179022	743.661523	1752.295017	1067.853451	676.652312	1862.298489	931.707144	772.842705	1903.655529	942.476094	709.708393	1852.081537	916.846573	650.804222	1916.481018	798.341274	701.284885	1926.164269	701.976240	716.368318	1936.106205	731.850982	641.879797	1872.181654	766.383767	625.522733	1836.235285	673.835218	543.477774	1868.940592	614.137888	584.605157	1775.134444	693.532467	579.962969	1822.958589	603.276134	562.530279	1767.562866	646.061540	562.641263	1858.275056	763.308406	765.445948	1791.640043	610.430360	502.526700	
809	3.236000	1409.843445	637.781382	656.169713	1744.383693	653.277993	650.917590	1516.767621	872.748554	561.811209	1580.112219	819.584191	560.978651	1491.722107	780.035496	562.485397	1581.705689	1132.178068	743.669212	1752.300024	1067.846298	676.663041	1862.306476	931.704164	772.846878	1903.656363	942.477584	709.711194	1852.082729	916.857362	650.811851	1916.485667	798.319042	701.282382	1926.159978	701.969981	716.372848	1936.097026	731.856227	641.892016	1872.186661	766.384721	625.511169	1836.237669	673.836052	543.471932	1868.955731	614.146471	584.602833	1775.135636	693.537533	579.963326	1822.957993	603.296399	562.509060	1767.576575	646.060824	562.635303	1858.285546	763.321817	765.474916	1791.650891	610.448778	502.530038	
810	3.240000	1409.854174	637.781739	656.185806	1744.385242	653.284073	650.940776	1516.775370	872.751474	561.797738	1580.122948	819.583058	560.987949	1491.725802	780.025363	562.495649	1581.707120	1132.172823	743.679404	1752.302051	1067.837954	676.666498	1862.311959	931.703925	772.864580	1903.653145	942.478240	709.718287	1852.088451	916.857004	650.836825	1916.493535	798.316956	701.279104	1926.163554	701.970220	716.375172	1936.102629	731.861055	641.890526	1872.193933	766.383529	625.508785	1836.246490	673.846960	543.481946	1868.937016	614.133775	584.601462	1775.143385	693.530142	579.970598	1822.939634	603.300929	562.520444	1767.577529	646.045446	562.622488	1858.287573	763.316751	765.469253	1791.648746	610.468566	502.561390	
811	3.244000	1409.858465	637.781739	656.175852	1744.385958	653.300583	650.963545	1516.769648	872.751176	561.803937	1580.126047	819.593012	561.000228	1491.716504	780.012488	562.522888	1581.715345	1132.170916	743.702531	1752.300739	1067.837238	676.678777	1862.307191	931.698918	772.866011	1903.652906	942.474902	709.737480	1852.091551	916.857362	650.845826	1916.493177	798.327804	701.286256	1926.160693	701.966703	716.378212	1936.098814	731.849492	641.898751	1872.193575	766.384482	625.522852	1836.252451	673.853457	543.492377	1868.959188	614.140391	584.603131	1775.150895	693.524599	579.977512	1822.904229	603.303611	562.542081	1767.572403	646.051764	562.640309	1858.286977	763.321877	765.481353	1791.625142	610.461652	502.559543	
812	3.248000	1409.868121	637.776852	656.169653	1744.385719	653.293431	650.945663	1516.781807	872.742116	561.820984	1580.143809	819.603682	561.020255	1491.737008	780.020952	562.527120	1581.732988	1132.176042	743.719101	1752.292991	1067.841768	676.690817	1862.298965	931.687772	772.876859	1903.656721	942.478180	709.745705	1852.085471	916.853547	650.843561	1916.479111	798.328400	701.293588	1926.152468	701.966524	716.380298	1936.102033	731.860995	641.910076	1872.200012	766.380608	625.531316	1836.256981	673.857808	543.492079	1868.950605	614.129722	584.608793	1775.143862	693.522036	579.979300	1822.905302	603.309274	562.544286	1767.563462	646.066904	562.647998	1858.296275	763.351321	765.531659	1791.612387	610.436082	502.547503	
813	3.252000	1409.853935	637.778461	656.181097	1744.384170	653.269410	650.934398	1516.790748	872.759521	561.812758	1580.157518	819.602013	561.039388	1491.744041	780.017793	562.542677	1581.730008	1132.182717	743.736744	1752.286196	1067.840695	676.708221	1862.293720	931.688547	772.887588	1903.652549	942.481816	709.755361	1852.074146	916.850507	650.851786	1916.485548	798.318565	701.302409	1926.178694	701.979399	716.392040	1936.124682	731.873214	641.932547	1872.193575	766.384006	625.535727	1836.264253	673.857093	543.496132	1868.936777	614.120543	584.609628	1775.142431	693.523586	579.977810	1822.912693	603.294134	562.548935	1767.560959	646.078646	562.671423	1858.292341	763.343930	765.537143	1791.616797	610.444665	502.550840	
814	3.256000	1409.839749	637.781382	656.190932	1744.388580	653.257251	650.932610	1516.814470	872.763753	561.825395	1580.163121	819.602430	561.044931	1491.749525	780.002296	562.548101	1581.725597	1132.186413	743.737936	1752.288818	1067.841411	676.719189	1862.295389	931.690812	772.894979	1903.648019	942.477703	709.764481	1852.075934	916.850507	650.848508	1916.488528	798.313916	701.303899	1926.224351	702.005744	716.403782	1936.129212	731.849790	641.935885	1872.191668	766.375542	625.531495	1836.276889	673.868299	543.498993	1868.932962	614.129245	584.601223	1775.153518	693.524539	579.983652	1822.923541	603.286982	562.562466	1767.586946	646.086693	562.685370	1858.292341	763.342559	765.538871	1791.641593	610.447705	502.547801	
815	3.260000	1409.846425	637.791693	656.192183	1744.390607	653.262973	650.935709	1516.814351	872.756720	561.840892	1580.168366	819.603920	561.070919	1491.756916	779.979050	562.563479	1581.726432	1132.185936	743.736029	1752.289772	1067.841291	676.720321	1862.296224	931.693077	772.902787	1903.645277	942.468584	709.773898	1852.086425	916.847944	650.849998	1916.477919	798.327088	701.309264	1926.208377	701.995194	716.397464	1936.118364	731.842637	641.933084	1872.193575	766.373396	625.541806	1836.275458	673.871875	543.501973	1868.937850	614.135802	584.596097	1775.151849	693.527341	579.984844	1822.935462	603.281200	562.560797	1767.591715	646.081865	562.662959	1858.275533	763.315320	765.505075	1791.646004	610.442936	502.545774	
816	3.264000	1409.854650	637.790561	656.199932	1744.385362	653.281271	650.946498	1516.827106	872.753799	561.843097	1580.175877	819.606245	561.085820	1491.749167	779.976249	562.586069	1581.743598	1132.194757	743.748248	1752.294540	1067.842960	676.742554	1862.293482	931.691945	772.909403	1903.644085	942.458570	709.784329	1852.090597	916.852653	650.861621	1916.475296	798.314571	701.313496	1926.182866	701.979578	716.401696	1936.121583	731.852412	641.921639	1872.198462	766.369045	625.552416	1836.274862	673.868597	543.507457	1868.949413	614.131927	584.615171	1775.149345	693.522096	579.988241	1822.941184	603.295922	562.557936	1767.597795	646.059692	562.686980	1858.274937	763.316631	765.534043	1791.641951	610.451937	502.562642	
817	3.268000	1409.874797	637.783885	656.193316	1744.387031	653.276026	650.944233	1516.820669	872.751176	561.837196	1580.193162	819.602609	561.095357	1491.756916	779.977977	562.610626	1581.748009	1132.210493	743.774056	1752.282262	1067.838907	676.742971	1862.288833	931.688666	772.917807	1903.646588	942.462504	709.790409	1852.083683	916.846633	650.870502	1916.472435	798.303843	701.322913	1926.213503	701.990366	716.416776	1936.107755	731.848598	641.943038	1872.202992	766.366184	625.551641	1836.275578	673.867524	543.510675	1868.942499	614.118278	584.622920	1775.143147	693.513751	579.985857	1822.952271	603.299141	562.556326	1767.606497	646.097302	562.697172	1858.264446	763.307154	765.520155	1791.655660	610.457420	502.559781	
